<?xml version="1.0" encoding="iso-8859-1"?>
<!-- Generator: Adobe Illustrator 19.0.0, SVG Export Plug-In . SVG Version: 6.00 Build 0)  -->
<svg version="1.1" id="Layer_1" xmlns="http://www.w3.org/2000/svg" xmlns:xlink="http://www.w3.org/1999/xlink" x="0px" y="0px"
	 viewBox="0 0 512 512" style="enable-background:new 0 0 512 512;" xml:space="preserve">
<g>
	<g>
		<polygon style="fill:#F8B517;" points="63.999,38.4 448.001,38.4 512,140.8 0,140.8 		"/>
	</g>
	<g>
		<rect x="51.2" style="fill:#FFD248;" width="409.6" height="38.4"/>
	</g>
	<g>
		<path style="fill:#F8B517;" d="M0,140.8h512v32c0,10.176-8.256,18.432-18.432,18.432H18.432C8.256,191.232,0,183.04,0,172.8V140.8z"
			/>
	</g>
	<g>
		<polygon style="fill:#E3A003;" points="236.8,38.4 275.2,38.4 308.8,140.8 203.2,140.8 		"/>
	</g>
	<g>
		<rect x="236.8" style="fill:#F8B517;" width="38.4" height="38.4"/>
	</g>
</g>
<g>
	<g>
		<path style="fill:#CEAA78;" d="M384,473.6H128L38.4,191.232h435.2L384,473.6z"/>
	</g>
	<g>
		<path style="fill:#B39265;" d="M473.6,191.232L384,473.6h-76.8l89.6-282.368H473.6z"/>
	</g>
</g>
<g>
	<g>
		<path style="fill:#C19864;" d="M409.6,216.832c0-2.56-1.536-4.608-4.096-5.12L384,204.8c-2.56-0.512-5.12,0.512-6.144,2.56
			l-79.36,147.456c-1.024,2.048-0.512,4.608,1.024,6.144c0.512,0.512,1.536,1.024,2.048,1.536c1.024,0.512,2.048,0.512,3.072,0.512
			h96.768L409.6,216.832z"/>
	</g>
	<g>
		<path style="fill:#AC834F;" d="M401.408,362.496h-70.144l71.68-133.12c1.024-1.536,0.512-4.096-1.024-5.12
			c-1.536-0.512-3.072,0-4.096,1.536l-76.8,142.848c-0.512,1.536-0.512,3.072,0.512,4.096c1.024,1.024,2.048,2.048,3.584,2.048
			h76.288c1.536,0,3.584-1.024,4.096-2.56S403.456,363.52,401.408,362.496z"/>
	</g>
</g>
<g>
	<g>
		<path style="fill:#C19864;" d="M128,512h117.76V396.8c0-34.816-28.16-64-64-64H128V512z"/>
	</g>
	<g>
		<path style="fill:#AC834F;" d="M181.76,332.8c23.04,0,43.008,13.312,53.248,32.256c-10.24,10.24-24.064,16.384-39.488,16.384H128
			v-48.64H181.76z"/>
	</g>
</g>
<g>
	<g>
		<path style="fill:#B39265;" d="M266.24,512H384V332.8h-53.76c-35.84,0-64,28.16-64,64V512z"/>
	</g>
</g>
<g>
</g>
<g>
</g>
<g>
</g>
<g>
</g>
<g>
</g>
<g>
</g>
<g>
</g>
<g>
</g>
<g>
</g>
<g>
</g>
<g>
</g>
<g>
</g>
<g>
</g>
<g>
</g>
<g>
</g>
</svg>
